<svg width="80" height="80" viewBox="0 0 80 80" fill="none" xmlns="http://www.w3.org/2000/svg">
<rect width="80" height="80" rx="20" fill="#F6931A"/>
<path d="M54.6579 41.4363C55.4061 41.8326 56.1187 42.2928 56.7876 42.8118C59.1228 44.6634 60.11 47.0713 59.7342 50.0229C59.4855 52.2118 58.7119 54.3082 57.4791 56.134C55.9633 58.3364 53.811 59.5265 51.2152 59.9725C49.0629 60.3433 46.9131 60.2231 44.7659 59.9349C43.9841 59.8322 43.2074 59.6994 42.4332 59.5566C42.1826 59.509 42.1049 59.5892 42.0473 59.8272C41.456 62.2376 40.8421 64.6429 40.2558 67.0558C40.1731 67.3965 40.0729 67.4567 39.7297 67.364C38.3741 66.9981 37.0061 66.6649 35.6406 66.3367C35.39 66.2816 35.3624 66.2114 35.4201 65.9759C36.0264 63.5805 36.6152 61.1802 37.2241 58.7849C37.2917 58.5143 37.2667 58.4015 36.9735 58.3314C35.9162 58.0708 34.8622 57.7952 33.8115 57.5045C33.5434 57.4294 33.4657 57.5045 33.4031 57.7551C32.8118 60.1654 32.2004 62.5733 31.6116 64.9837C31.5439 65.2543 31.4663 65.2994 31.1982 65.2342C29.8184 64.8768 28.4329 64.5318 27.0414 64.1994C26.7909 64.1393 26.7558 64.034 26.8134 63.796C27.4248 61.3781 28.0161 58.9552 28.6325 56.5299C28.7126 56.2167 28.6475 56.1139 28.3418 56.0287C25.3351 55.2771 22.351 54.5254 19.3543 53.7737C19.1413 53.7211 19.0762 53.6685 19.1764 53.443C19.9081 51.7726 20.6305 50.1022 21.3437 48.4318C21.4339 48.2189 21.5467 48.2239 21.7371 48.2765C22.7694 48.5471 23.7992 48.8277 24.839 49.0582C26.1369 49.3464 26.9036 48.8377 27.2243 47.5549C28.2115 43.5944 29.2004 39.6348 30.1909 35.676C30.9426 32.6693 31.6943 29.6626 32.4459 26.6559C32.7491 25.4382 32.1102 24.2656 30.8599 23.7845C29.886 23.4527 28.8918 23.1841 27.8833 22.9802C27.5876 22.9075 27.2945 22.8299 26.9963 22.7748C26.8335 22.7447 26.8109 22.682 26.8485 22.5242C27.2419 20.9632 27.6352 19.4022 28.0136 17.8363C28.0787 17.5556 28.2466 17.6458 28.3994 17.6834C29.5871 17.9766 30.7697 18.2822 31.9599 18.5729C33.7589 19.0089 35.5428 19.5125 37.3519 19.9159C37.65 19.9835 37.7628 19.9459 37.8405 19.6302C38.4167 17.2525 39.0181 14.8697 39.5944 12.5044C39.667 12.2062 39.7572 12.121 40.0704 12.2037C41.4284 12.5645 42.794 12.9028 44.1595 13.2285C44.4476 13.2987 44.4752 13.4089 44.4101 13.677C43.8137 16.0247 43.2349 18.3775 42.6411 20.7252C42.5785 20.9757 42.6036 21.0484 42.8691 21.1085C43.9315 21.3416 44.9939 21.5921 46.0487 21.8602C46.3519 21.9404 46.4371 21.8427 46.5047 21.5721C47.066 19.277 47.6423 16.9869 48.201 14.6918C48.2787 14.3761 48.3664 14.2633 48.7272 14.361C50.0702 14.7243 51.4257 15.0551 52.7787 15.3783C53.0443 15.4409 53.0969 15.5286 53.0292 15.7967C52.4229 18.192 51.8391 20.5924 51.2252 22.9852C51.1476 23.2909 51.2252 23.3811 51.4958 23.4863C53.376 24.0988 55.1658 24.96 56.8177 26.047C58.3686 27.1069 59.654 28.3998 60.3505 30.1862C61.1022 32.1431 60.9544 34.1125 60.3681 36.0718C59.5412 38.8463 57.723 40.6002 54.9134 41.3335C54.8182 41.3486 54.7556 41.3837 54.6579 41.4363ZM43.7686 53.2626H44.0944C45.267 53.225 46.4195 53.0972 47.4894 52.5786C50.1929 51.2656 50.7717 47.6676 48.637 45.4778C47.3842 44.1999 45.8257 43.4733 44.1946 42.8669C42.1901 42.1153 40.0779 41.6843 37.9933 41.1807C37.6901 41.108 37.6325 41.2032 37.5698 41.4588C36.7564 44.7645 35.9329 48.0669 35.0994 51.3659C35.0317 51.6315 35.1144 51.6966 35.3499 51.7517C36.2444 51.9672 37.1314 52.2102 38.0259 52.4282C39.9024 52.9125 41.8266 53.1881 43.7636 53.2501L43.7686 53.2626ZM45.9284 37.5777C46.5722 37.589 47.2154 37.5336 47.8477 37.4123C49.5189 37.0615 50.7266 36.1595 51.2127 34.4733C51.6988 32.787 51.3004 31.2662 49.9599 30.0484C49.2491 29.4221 48.442 28.9145 47.5696 28.5451C45.6228 27.6757 43.5456 27.2397 41.476 26.7736C41.2255 26.716 41.2054 26.8714 41.1628 27.0443C40.8622 28.2536 40.559 29.4638 40.2533 30.6748C39.8148 32.4287 39.3789 34.2002 38.9279 35.9591C38.8627 36.2096 38.9053 36.3199 39.1784 36.38C39.6996 36.4903 40.2082 36.6481 40.7269 36.7759C42.4357 37.1768 44.152 37.5577 45.9234 37.5652L45.9284 37.5777Z" fill="white"/>
</svg>
