<svg width="80" height="80" viewBox="0 0 80 80" fill="none" xmlns="http://www.w3.org/2000/svg">
<rect width="80" height="80" rx="20" fill="#F0B90B"/>
<path d="M21.9109 39.9739L21.9402 50.7052L31.0586 56.0709V62.3535L16.6038 53.8758V36.8358L21.9109 39.9739ZM21.9109 29.2426V35.4961L16.6006 32.3547V26.1013L21.9109 22.96L27.2473 26.1013L21.9109 29.2426ZM34.8665 26.1013L40.1769 22.96L45.5133 26.1013L40.1769 29.2426L34.8665 26.1013Z" fill="white"/>
<path d="M25.751 48.4809V42.1982L31.0613 45.3396V51.593L25.751 48.4809ZM34.8693 58.3212L40.1797 61.4625L45.5161 58.3212V64.5746L40.1797 67.7159L34.8693 64.5746V58.3212ZM53.132 26.1013L58.4424 22.96L63.7788 26.1013V32.3547L58.4424 35.4961V29.2426L53.132 26.1013ZM58.4424 50.7052L58.4716 39.9739L63.782 36.8326V53.8726L49.3273 62.3503V56.0676L58.4424 50.7052Z" fill="white"/>
<path d="M54.6346 48.4809L49.3242 51.593V45.3396L54.6346 42.1982V48.4809Z" fill="white"/>
<path d="M54.6344 31.467L54.6637 37.7496L45.5193 43.1153V53.8726L40.2089 56.9846L34.8986 53.8726V43.1153L25.7542 37.7496V31.467L31.0874 28.3256L40.1764 33.7173L49.3208 28.3256L54.6572 31.467H54.6344ZM25.751 20.7389L40.1797 12.2319L54.6344 20.7389L49.324 23.8803L40.1797 18.4886L31.0613 23.8803L25.751 20.7389Z" fill="white"/>
</svg>
