<svg width="80" height="80" viewBox="0 0 80 80" fill="none" xmlns="http://www.w3.org/2000/svg">
<rect width="80" height="80" rx="20" fill="#EDEFF0"/>
<g clip-path="url(#clip0_17_429)">
<path d="M40.0562 50.3909C39.887 50.4484 39.7906 50.3012 39.6755 50.2335C34.0352 46.9046 28.4011 43.5735 22.7732 40.24C22.7187 40.2125 22.6621 40.1893 22.604 40.1707V40.0962L22.7038 40.0387C22.8456 40.0015 22.9851 39.9563 23.1218 39.9033L36.4132 33.8558C37.5976 33.316 38.7821 32.7847 39.9666 32.25H40.0512C40.0512 32.4192 40.0512 32.5698 40.0512 32.7306C40.0557 38.6179 40.0574 44.5047 40.0562 50.3909Z" fill="#393939"/>
<path d="M40.0646 32.2541H39.98C39.98 32.0849 39.9969 31.9157 39.9969 31.738C39.9969 25.1253 39.9969 18.5121 39.9969 11.8983C39.9775 11.7284 39.9889 11.5564 40.0308 11.3906H40.0663C40.7617 12.4177 41.3675 13.5007 42.0071 14.5616C47.0744 22.9668 52.1388 31.3708 57.2004 39.7738C57.2495 39.8567 57.2884 39.943 57.3324 40.0343C57.189 40.0037 57.0482 39.9624 56.911 39.9108C55.9821 39.4912 55.0497 39.0648 54.1292 38.6367C52.6876 37.9767 51.2454 37.318 49.8026 36.6603L42.8515 33.5113C41.9259 33.0849 40.9952 32.6704 40.0646 32.2541Z" fill="#343434"/>
<path d="M40.0361 11.3821C39.9943 11.5479 39.9828 11.7199 40.0023 11.8898C40.0023 18.5025 40.0023 25.1157 40.0023 31.7295C40.0023 31.8987 39.9921 32.0679 39.9854 32.2456C38.8009 32.7803 37.6164 33.3116 36.432 33.8514L23.1406 39.8989C23.004 39.9519 22.8644 39.9971 22.7227 40.0343C23.1068 39.2356 23.6059 38.5114 24.0611 37.7466C29.3348 28.9804 34.6124 20.216 39.894 11.4532C39.9289 11.4047 39.9668 11.3583 40.0074 11.3145L40.0361 11.3821Z" fill="#8C8C8C"/>
<path d="M40.0646 32.2544C40.9953 32.6706 41.9259 33.0852 42.8549 33.5049L49.806 36.6538C51.2499 37.3104 52.6921 37.9692 54.1327 38.6302C55.0599 39.0549 55.994 39.4847 56.9145 39.9043C57.0516 39.9559 57.1925 39.9972 57.3358 40.0279C57.505 40.2394 57.2546 40.2478 57.1784 40.2935C55.7351 41.1565 54.2849 42.0076 52.8382 42.8638C48.6858 45.3207 44.5346 47.7771 40.3844 50.2329C40.2795 50.2938 40.1661 50.3395 40.0562 50.3919C40.0562 44.5068 40.0562 38.6212 40.0562 32.7349C40.0578 32.5742 40.0629 32.4151 40.0646 32.2544Z" fill="#141414"/>
<path d="M39.9967 53.7342L50.8684 47.3263C52.944 46.1012 55.0185 44.875 57.0919 43.6476L57.2797 43.5444C57.2983 43.7136 57.1816 43.8033 57.1105 43.9015C52.3726 50.5807 47.6348 57.2577 42.8969 63.9324C42.0001 65.1981 41.105 66.4706 40.1997 67.7261C40.1524 67.7921 40.0796 68.1017 39.9341 67.7735C40.0491 67.6753 39.9984 67.5434 39.9984 67.4351C39.9995 62.8664 39.9989 58.2995 39.9967 53.7342Z" fill="#3D3D3C"/>
<path d="M39.9958 53.7348C39.9958 58.3001 39.9958 62.8642 39.9958 67.4272C39.9958 67.544 40.0465 67.676 39.9315 67.7656C39.6895 67.6201 39.5846 67.3595 39.4238 67.1446C33.9302 59.4061 28.4393 51.6665 22.9513 43.9258C22.882 43.8276 22.8176 43.7227 22.7466 43.6144C22.8887 43.5315 22.9649 43.6449 23.0478 43.694C28.6035 46.9744 34.158 50.2576 39.7115 53.5436C39.8147 53.6079 39.9027 53.6739 39.9958 53.7348Z" fill="#8C8C8C"/>
<path d="M40.0372 11.3818L39.9966 11.3192C40.071 11.2719 40.0609 11.3412 40.0727 11.3768L40.0372 11.3818Z" fill="#393939"/>
</g>
<defs>
<clipPath id="clip0_17_429">
<rect width="34.7826" height="56.619" fill="white" transform="translate(22.6089 11.3042)"/>
</clipPath>
</defs>
</svg>
