<svg width="80" height="80" viewBox="0 0 80 80" fill="none" xmlns="http://www.w3.org/2000/svg">
<rect width="80" height="80" rx="20" fill="#8247E5"/>
<g clip-path="url(#clip0_17_423)">
<path d="M53.36 30.7573C52.3884 30.2021 51.1392 30.2021 50.0289 30.7573L42.2564 35.3376L36.9821 38.2523L29.3484 42.8325C28.3768 43.3877 27.1277 43.3877 26.0173 42.8325L20.0491 39.2238C19.0776 38.6686 18.3836 37.5583 18.3836 36.3091V29.3694C18.3836 28.259 18.9388 27.1487 20.0491 26.4547L26.0173 22.9848C26.9889 22.4296 28.238 22.4296 29.3484 22.9848L35.3166 26.5935C36.2882 27.1487 36.9821 28.259 36.9821 29.5082V34.0884L42.2564 31.0349V26.3159C42.2564 25.2055 41.7012 24.0952 40.5908 23.4012L29.4872 16.8778C28.5156 16.3226 27.2665 16.3226 26.1561 16.8778L14.7749 23.54C13.6646 24.0952 13.1094 25.2055 13.1094 26.3159V39.3626C13.1094 40.473 13.6646 41.5833 14.7749 42.2773L26.0173 48.8007C26.9889 49.3559 28.238 49.3559 29.3484 48.8007L36.9821 44.3592L42.2564 41.3058L49.8901 36.8643C50.8617 36.3091 52.1108 36.3091 53.2212 36.8643L59.1894 40.3342C60.1609 40.8894 60.8549 41.9997 60.8549 43.2489V50.1886C60.8549 51.299 60.2997 52.4094 59.1894 53.1033L53.36 56.5732C52.3884 57.1284 51.1392 57.1284 50.0289 56.5732L44.0607 53.1033C43.0891 52.5482 42.3951 51.4378 42.3951 50.1886V45.7472L37.1209 48.8007V53.3809C37.1209 54.4913 37.6761 55.6017 38.7865 56.2956L50.0289 62.819C51.0004 63.3742 52.2496 63.3742 53.36 62.819L64.6024 56.2956C65.5739 55.7405 66.2679 54.6301 66.2679 53.3809V40.1954C66.2679 39.085 65.7127 37.9747 64.6024 37.2807L53.36 30.7573Z" fill="white"/>
</g>
<defs>
<clipPath id="clip0_17_423">
<rect width="53.2973" height="46.4964" fill="white" transform="translate(13.106 16.6006)"/>
</clipPath>
</defs>
</svg>
