<svg width="80" height="80" viewBox="0 0 80 80" fill="none" xmlns="http://www.w3.org/2000/svg">
<rect width="80" height="80" rx="20" fill="white"/>
<g clip-path="url(#clip0_17_439)">
<path d="M40 75C59.33 75 75 59.33 75 40C75 20.67 59.33 5 40 5C20.67 5 5 20.67 5 40C5 59.33 20.67 75 40 75Z" fill="#0098EA"/>
<path d="M51.9504 24.5347H28.0483C23.6536 24.5347 20.8681 29.2753 23.0791 33.1077L37.8306 58.6762C38.7932 60.3457 41.2056 60.3457 42.1682 58.6762L56.9227 33.1077C59.1307 29.2814 56.3452 24.5347 51.9534 24.5347H51.9504ZM37.8186 51.0085L34.6059 44.7909L26.8542 30.9268C26.3428 30.0394 26.9744 28.9023 28.0453 28.9023H37.8156V51.0115L37.8186 51.0085ZM53.1386 30.9238L45.3898 44.7939L42.1772 51.0085V28.8993H51.9474C53.0183 28.8993 53.6499 30.0364 53.1386 30.9238Z" fill="white"/>
</g>
<defs>
<clipPath id="clip0_17_439">
<rect width="70" height="70" fill="white" transform="translate(5 5)"/>
</clipPath>
</defs>
</svg>
