<svg width="40" height="40" viewBox="0 0 40 40" fill="none" xmlns="http://www.w3.org/2000/svg">
<rect width="40" height="40" rx="20" fill="white" fill-opacity="0.1"/>
<path d="M25.3851 19.4593C25.3643 16.9755 27.422 15.7648 27.5178 15.7107C26.3515 14.0133 24.5438 13.7803 23.9065 13.7636C22.3862 13.6056 20.9158 14.6706 20.1411 14.6706C19.3538 14.6706 18.1625 13.7803 16.8754 13.8053C15.2218 13.8302 13.6765 14.7871 12.8309 16.2682C11.0815 19.2929 12.3853 23.7361 14.0639 26.1825C14.9011 27.3807 15.88 28.7162 17.1629 28.6704C18.4166 28.6205 18.8873 27.8716 20.3993 27.8716C21.8988 27.8716 22.3403 28.6704 23.6482 28.6413C24.9936 28.6205 25.8433 27.4389 26.6514 26.2324C27.6219 24.8595 28.0093 23.5073 28.026 23.4408C27.9926 23.4199 25.4101 22.434 25.3851 19.4593ZM22.9151 12.1536C23.5899 11.309 24.0522 10.1649 23.9231 9C22.9485 9.04158 21.7238 9.67397 21.0241 10.4978C20.4035 11.2258 19.8453 12.4157 19.9911 13.5348C21.0824 13.6139 22.2112 12.9815 22.9151 12.1536Z" fill="white"/>
</svg>
