<svg width="32" height="32" viewBox="0 0 32 32" fill="none" xmlns="http://www.w3.org/2000/svg">
<path d="M23.1808 15.2789C23.1531 11.9672 25.8966 10.353 26.0243 10.2809C24.4693 8.01762 22.059 7.70697 21.2093 7.68478C19.1822 7.47402 17.2217 8.89411 16.1887 8.89411C15.1391 8.89411 13.5507 7.70697 11.8346 7.74029C9.62974 7.77354 7.56931 9.04943 6.44191 11.0242C4.10934 15.0571 5.84768 20.9814 8.08582 24.2432C9.20208 25.8408 10.5073 27.6215 12.2178 27.5604C13.8894 27.4938 14.517 26.4953 16.533 26.4953C18.5324 26.4953 19.1211 27.5604 20.865 27.5216C22.6588 27.4938 23.7918 25.9184 24.8692 24.3098C26.1632 22.4792 26.6797 20.6764 26.7019 20.5876C26.6575 20.5598 23.2142 19.2452 23.1808 15.2789ZM19.8875 5.53802C20.7872 4.41195 21.4036 2.88648 21.2315 1.33325C19.9319 1.3887 18.2991 2.23187 17.3661 3.33026C16.5386 4.30101 15.7944 5.88748 15.9888 7.3797C17.4438 7.48508 18.9489 6.6419 19.8875 5.53802Z" fill="white"/>
</svg>
