<svg width="40" height="40" viewBox="0 0 40 40" fill="none" xmlns="http://www.w3.org/2000/svg">
  <path d="M20 3.75C16.7861 3.75 13.6443 4.70305 10.972 6.48862C8.29969 8.27419 6.21689 10.8121 4.98696 13.7814C3.75704 16.7507 3.43524 20.018 4.06225 23.1702C4.68926 26.3224 6.23692 29.2179 8.50952 31.4905C10.7821 33.7631 13.6776 35.3107 16.8298 35.9378C19.982 36.5648 23.2493 36.243 26.2186 35.013C29.1879 33.7831 31.7258 31.7003 33.5114 29.028C35.297 26.3557 36.25 23.2139 36.25 20C36.2455 15.6916 34.5319 11.561 31.4855 8.51454C28.439 5.46806 24.3084 3.75455 20 3.75ZM26.25 22.5C26.25 22.8315 26.1183 23.1495 25.8839 23.3839C25.6495 23.6183 25.3315 23.75 25 23.75C24.6685 23.75 24.3505 23.6183 24.1161 23.3839C23.8817 23.1495 23.75 22.8315 23.75 22.5V18.0172L15.8844 25.8844C15.7682 26.0005 15.6304 26.0926 15.4786 26.1555C15.3269 26.2183 15.1642 26.2507 15 26.2507C14.8358 26.2507 14.6731 26.2183 14.5214 26.1555C14.3696 26.0926 14.2318 26.0005 14.1156 25.8844C13.9995 25.7682 13.9074 25.6304 13.8445 25.4786C13.7817 25.3269 13.7493 25.1642 13.7493 25C13.7493 24.8358 13.7817 24.6731 13.8445 24.5214C13.9074 24.3696 13.9995 24.2318 14.1156 24.1156L21.9828 16.25H17.5C17.1685 16.25 16.8505 16.1183 16.6161 15.8839C16.3817 15.6495 16.25 15.3315 16.25 15C16.25 14.6685 16.3817 14.3505 16.6161 14.1161C16.8505 13.8817 17.1685 13.75 17.5 13.75H25C25.3315 13.75 25.6495 13.8817 25.8839 14.1161C26.1183 14.3505 26.25 14.6685 26.25 15V22.5Z" fill="#8126C8"/>
</svg>
