<svg width="40" height="40" viewBox="0 0 40 40" fill="none" xmlns="http://www.w3.org/2000/svg">
  <path d="M32.5 5H12.5C11.837 5 11.2011 5.26339 10.7322 5.73223C10.2634 6.20107 10 6.83696 10 7.5V10H7.5C6.83696 10 6.20107 10.2634 5.73223 10.7322C5.26339 11.2011 5 11.837 5 12.5V32.5C5 33.163 5.26339 33.7989 5.73223 34.2678C6.20107 34.7366 6.83696 35 7.5 35H27.5C28.163 35 28.7989 34.7366 29.2678 34.2678C29.7366 33.7989 30 33.163 30 32.5V30H32.5C33.163 30 33.7989 29.7366 34.2678 29.2678C34.7366 28.7989 35 28.163 35 27.5V7.5C35 6.83696 34.7366 6.20107 34.2678 5.73223C33.7989 5.26339 33.163 5 32.5 5ZM12.5 7.5H32.5V18.3406L29.8906 15.7312C29.4218 15.2628 28.7862 14.9996 28.1234 14.9996C27.4607 14.9996 26.825 15.2628 26.3562 15.7312L14.5891 27.5H12.5V7.5ZM27.5 32.5H7.5V12.5H10V27.5C10 28.163 10.2634 28.7989 10.7322 29.2678C11.2011 29.7366 11.837 30 12.5 30H27.5V32.5ZM16.25 13.75C16.25 13.2555 16.3966 12.7722 16.6713 12.3611C16.946 11.95 17.3365 11.6295 17.7933 11.4403C18.2501 11.2511 18.7528 11.2016 19.2377 11.298C19.7227 11.3945 20.1681 11.6326 20.5178 11.9822C20.8674 12.3319 21.1055 12.7773 21.202 13.2623C21.2984 13.7472 21.2489 14.2499 21.0597 14.7067C20.8705 15.1635 20.55 15.554 20.1389 15.8287C19.7278 16.1034 19.2445 16.25 18.75 16.25C18.087 16.25 17.4511 15.9866 16.9822 15.5178C16.5134 15.0489 16.25 14.413 16.25 13.75Z" fill="#8126C8"/>
</svg>
