<svg width="130" height="41" viewBox="0 0 130 41" fill="none" xmlns="http://www.w3.org/2000/svg">
<g clip-path="url(#clip0_17_321)">
<g clip-path="url(#clip1_17_321)">
<g clip-path="url(#clip2_17_321)">
<path fill-rule="evenodd" clip-rule="evenodd" d="M16.8511 1.12959C21.316 0.37327 25.9044 1.22085 29.8044 3.52233C33.7044 5.82381 36.6644 9.43078 38.1607 13.7049C38.2093 13.8358 38.2314 13.9752 38.2255 14.1148C38.2197 14.2544 38.1861 14.3914 38.1267 14.5179C38.0673 14.6443 37.9832 14.7577 37.8795 14.8513C37.7758 14.9449 37.6545 15.0169 37.5226 15.0631C37.3908 15.1092 37.251 15.1287 37.1116 15.1202C36.9721 15.1118 36.8357 15.0756 36.7104 15.0138C36.5851 14.9521 36.4733 14.8659 36.3817 14.7605C36.29 14.655 36.2203 14.5324 36.1766 14.3997C34.8739 10.6774 32.3233 7.52053 28.9577 5.46498C25.5921 3.40943 21.6189 2.58183 17.7125 3.12265C13.8061 3.66347 10.2072 5.5394 7.52663 8.432C4.84608 11.3246 3.24906 15.0557 3.00665 18.9919H9.2121C9.36222 17.4392 9.8441 15.9368 10.6252 14.5864C11.4062 13.2361 12.4682 12.0692 13.7393 11.1649C15.0104 10.2605 16.4609 9.63975 17.9927 9.34456C19.5245 9.04936 21.1018 9.08664 22.6179 9.45386C24.8202 9.9868 26.8014 11.1931 28.2859 12.9049C29.7704 14.6167 30.6842 16.7488 30.9001 19.0043L38.1884 19.012C38.3265 19.0121 38.4633 19.0394 38.5909 19.0924C38.7184 19.1454 38.8343 19.2231 38.9318 19.3209C39.0294 19.4187 39.1067 19.5348 39.1593 19.6625C39.212 19.7902 39.239 19.927 39.2387 20.0652C39.234 24.5938 37.6272 28.9748 34.7028 32.4326C31.7784 35.8904 27.7249 38.2021 23.2599 38.9586C18.7948 39.715 14.2061 38.8674 10.306 36.5657C6.40584 34.2641 3.44575 30.6568 1.94963 26.3824C1.90099 26.2515 1.87895 26.1121 1.88479 25.9725C1.89063 25.8329 1.92424 25.6959 1.98364 25.5694C2.04305 25.443 2.12707 25.3296 2.23078 25.236C2.3345 25.1424 2.45583 25.0704 2.58769 25.0243C2.71955 24.9781 2.8593 24.9586 2.99875 24.9671C3.13821 24.9755 3.27458 25.0117 3.3999 25.0735C3.52522 25.1352 3.63697 25.2214 3.72862 25.3268C3.82028 25.4323 3.88999 25.5549 3.93369 25.6876C5.2358 29.4086 7.78491 32.5645 11.1487 34.6202C14.5124 36.676 18.4837 37.5048 22.3889 36.9663C26.2942 36.4278 29.8929 34.555 32.5747 31.6656C35.2565 28.7762 36.8563 25.048 37.1027 21.1136L20.0556 21.0945H20.0537C19.7749 21.0942 19.5076 20.9832 19.3106 20.7859C19.1137 20.5885 19.0031 20.321 19.0034 20.0422C19.0036 19.7634 19.1147 19.4961 19.312 19.2991C19.5093 19.1021 19.7768 18.9916 20.0556 18.9919H28.7842C28.5539 17.0785 27.7013 15.2938 26.3577 13.9123C25.014 12.5308 23.2537 11.629 21.3474 11.3456C19.4412 11.0623 17.4947 11.413 15.8073 12.344C14.1199 13.2749 12.785 14.7345 12.0081 16.4981C11.2312 18.2617 11.0553 20.2318 11.5074 22.1052C11.9595 23.9786 13.0145 25.6516 14.5102 26.8668C16.006 28.082 17.8595 28.7722 19.7858 28.8311C21.7121 28.89 23.6044 28.3144 25.1716 27.1929C25.3984 27.0306 25.6804 26.9652 25.9556 27.0109C26.2307 27.0566 26.4764 27.2097 26.6386 27.4366C26.8008 27.6634 26.8663 27.9454 26.8206 28.2206C26.7749 28.4957 26.6217 28.7414 26.3949 28.9036C24.839 30.0168 23.0174 30.7007 21.1133 30.8864C19.2093 31.0722 17.2899 30.7534 15.5481 29.9619C13.8064 29.1705 12.3038 27.9344 11.1914 26.3779C10.0789 24.8215 9.39598 22.9996 9.21115 21.0954H2.18282C2.11156 21.0949 2.04051 21.0876 1.97065 21.0734H1.92287C1.78481 21.0734 1.64811 21.0462 1.52056 20.9934C1.39301 20.9406 1.27712 20.8631 1.1795 20.7655C1.08188 20.6679 1.00444 20.552 0.951606 20.4245C0.898774 20.2969 0.871582 20.1602 0.871582 20.0221C0.87635 15.4934 2.48322 11.1123 5.40777 7.65446C8.33232 4.1966 12.3859 1.88493 16.8511 1.12863V1.12959Z" fill="#2E5BF8"/>
<path d="M51.5049 4.51587H58.8974V5.88732H52.9509V9.55153H57.9225V10.9239H52.9509V14.8395H58.8974V16.2129H51.5049V4.51587ZM60.0385 7.44036H61.5007L63.9617 14.3693L66.415 7.44036H67.8859L64.7014 16.2138H63.222L60.0385 7.44036ZM70.1012 12.2333C70.1614 13.1479 70.4185 13.8522 70.8734 14.3454C71.3341 14.8376 71.9677 15.0842 72.7743 15.0842C73.3478 15.0842 73.8495 14.9513 74.2767 14.6866C74.7192 14.4111 75.0722 14.013 75.2926 13.5407L76.6823 14.0204C76.365 14.7612 75.8292 15.3873 75.1464 15.8153C74.464 16.2434 73.6947 16.4575 72.8393 16.4575C71.984 16.4575 71.2309 16.2673 70.581 15.8889C69.9353 15.5088 69.4133 14.9502 69.0776 14.2804C68.7259 13.5866 68.5501 12.7876 68.5501 11.8835C68.5501 10.9354 68.7231 10.1097 69.07 9.40626C69.4217 8.69616 69.9148 8.15236 70.5485 7.77294C71.1879 7.38875 71.9295 7.19665 72.7743 7.19665C73.6135 7.19665 74.3369 7.38588 74.9438 7.7653C75.5555 8.13803 76.0238 8.67705 76.3487 9.38141C76.6737 10.08 76.8361 10.9106 76.8361 11.8758C76.8361 12.0326 76.8333 12.152 76.8275 12.2333H70.1012ZM72.8231 8.49642C72.0375 8.49642 71.4182 8.71623 70.9623 9.15395C70.5074 9.59358 70.2293 10.232 70.1261 11.0711H75.3251C75.1464 9.35465 74.3121 8.49642 72.8231 8.49642ZM80.6762 7.97651C80.9323 7.7748 81.2241 7.62307 81.5363 7.52924C81.8598 7.42754 82.1969 7.37566 82.536 7.37537C82.7472 7.37537 82.9565 7.39639 83.161 7.44036V8.79747C82.9458 8.74449 82.7251 8.71691 82.5035 8.71528C81.9779 8.71528 81.5287 8.85386 81.155 9.13006C80.7665 9.40232 80.476 9.79236 80.3264 10.2425C80.1697 10.6974 80.0903 11.2202 80.0903 11.8099V16.2138H78.6376V7.44036H79.9298V8.82901C80.1152 8.49473 80.369 8.20404 80.6762 7.97651ZM87.695 16.4489C87.0011 16.4489 86.3866 16.3457 85.8504 16.1402C85.3152 15.9347 84.8785 15.6366 84.543 15.2466C84.2024 14.8463 83.9777 14.3605 83.8931 13.8417L85.3716 13.6057C85.4901 14.0873 85.7635 14.4668 86.1916 14.743C86.6198 15.0201 87.1502 15.1577 87.7838 15.1577C88.3802 15.1577 88.8485 15.0354 89.1887 14.7917C89.5357 14.5432 89.7096 14.2011 89.7096 13.7691C89.7096 13.5082 89.6494 13.3056 89.5309 13.1594C89.4162 13.0131 89.1926 12.8745 88.8561 12.7446C88.5207 12.6089 87.9788 12.4416 87.2314 12.2409C86.4468 12.0307 85.8342 11.8156 85.3965 11.5996C84.9568 11.3769 84.6434 11.1218 84.4532 10.8351C84.2639 10.5483 84.1693 10.1909 84.1693 9.7637C84.1693 9.2543 84.3098 8.80798 84.5917 8.42283C84.8727 8.0329 85.2684 7.7328 85.7768 7.52159C86.2862 7.30464 86.874 7.19665 87.5401 7.19665C88.2015 7.19665 88.794 7.30464 89.3197 7.52159C89.8501 7.73185 90.2754 8.0329 90.5946 8.42283C90.9195 8.80703 91.1116 9.2543 91.1718 9.7637L89.6933 10.0313C89.6628 9.80268 89.5831 9.5834 89.4597 9.38855C89.3363 9.1937 89.1721 9.02791 88.9785 8.9026C88.5771 8.62544 88.0629 8.48782 87.435 8.48782C87.0776 8.48782 86.7603 8.53943 86.4841 8.64264C86.2384 8.72323 86.0193 8.86928 85.8504 9.06507C85.7007 9.23857 85.6198 9.46095 85.623 9.69011C85.623 9.91183 85.688 10.0963 85.8179 10.2425C85.9536 10.3887 86.1973 10.5292 86.549 10.6649C86.9017 10.7949 87.4293 10.9497 88.1336 11.1285C88.9183 11.3292 89.5309 11.5423 89.9686 11.7697C90.4082 11.9972 90.7217 12.2658 90.9119 12.5745C91.1068 12.8831 91.2043 13.2673 91.2043 13.728C91.2043 14.2909 91.0629 14.7783 90.7819 15.1902C90.5 15.5964 90.0967 15.907 89.571 16.124C89.0454 16.3409 88.4203 16.4489 87.695 16.4489ZM97.0332 7.19665C97.8293 7.19665 98.5222 7.39735 99.1129 7.79779C99.7083 8.19824 100.163 8.75064 100.478 9.455C100.797 10.1527 100.956 10.9411 100.956 11.8185C100.956 12.7016 100.797 13.4948 100.478 14.1982C100.187 14.8681 99.7144 15.4427 99.1129 15.8564C98.5222 16.2568 97.8265 16.4575 97.0246 16.4575C96.5272 16.4649 96.0332 16.374 95.571 16.1899C95.1431 16.0096 94.7582 15.7409 94.4413 15.4015V20.1131H92.9877V7.44036H94.2789V8.42283C94.6095 8.02716 95.0052 7.72516 95.4649 7.51299C95.9256 7.30273 96.4483 7.19665 97.0332 7.19665ZM96.8459 15.1329C97.4041 15.1329 97.8752 14.9895 98.2594 14.7028C98.6493 14.4161 98.9399 14.0224 99.1291 13.5244C99.3241 13.0265 99.4216 12.4579 99.4216 11.8185C99.4216 11.1848 99.3241 10.6219 99.1291 10.1288C98.9601 9.65786 98.6547 9.24795 98.2518 8.95134C97.8618 8.66463 97.3802 8.52127 96.8058 8.52127C95.9772 8.52127 95.3493 8.81754 94.9211 9.41391C94.4929 10.0093 94.2789 10.8112 94.2789 11.8185C94.2789 12.8258 94.4929 13.6305 94.9211 14.2317C95.354 14.8328 95.9963 15.1329 96.8459 15.1329ZM109.48 8.91024C109.594 9.15873 109.67 9.43589 109.708 9.73885C109.745 10.037 109.764 10.3859 109.764 10.7873V16.2138H108.481V14.8491C107.782 15.9214 106.699 16.4575 105.231 16.4575C104.598 16.4575 104.057 16.3409 103.607 16.1077C103.157 15.8688 102.819 15.5534 102.592 15.1577C102.363 14.7572 102.245 14.3029 102.25 13.8417C102.25 12.5467 102.968 11.6885 104.403 11.2661C104.882 11.1403 105.368 11.0402 105.857 10.966C106.512 10.8636 107.167 10.7687 107.823 10.6812L108.343 10.6085C108.321 9.89845 108.142 9.37854 107.807 9.04882C107.471 8.71241 106.93 8.54516 106.182 8.54516C105.63 8.54516 105.156 8.67227 104.76 8.92745C104.37 9.17593 104.1 9.56013 103.948 10.08L102.575 9.66621C102.787 8.88062 103.198 8.27374 103.81 7.84653C104.428 7.41264 105.224 7.19665 106.199 7.19665C107.005 7.19665 107.69 7.34287 108.253 7.63532C108.822 7.92203 109.231 8.34733 109.48 8.91024ZM105.451 15.2466C105.955 15.2466 106.398 15.1577 106.783 14.979C107.168 14.7946 107.479 14.5509 107.717 14.2479C107.956 13.9392 108.11 13.598 108.181 13.2243C108.234 13.0399 108.27 12.8344 108.286 12.6069C108.308 12.3795 108.321 12.1243 108.327 11.8424L107.928 11.8921C107.34 11.9693 106.753 12.0531 106.166 12.1434C105.79 12.2018 105.418 12.2831 105.053 12.3871C104.636 12.5171 104.302 12.6958 104.054 12.9233C103.81 13.1507 103.688 13.4537 103.688 13.8331C103.688 14.0873 103.75 14.3234 103.875 14.5404C103.999 14.7506 104.194 14.9226 104.46 15.0517C104.725 15.1816 105.055 15.2466 105.451 15.2466ZM115.573 16.4575C114.701 16.4575 113.951 16.2626 113.322 15.8726C112.698 15.4747 112.201 14.9049 111.893 14.2317C111.568 13.533 111.4 12.7312 111.389 11.8271C111.4 10.9115 111.571 10.1049 111.901 9.40626C112.213 8.73418 112.716 8.16901 113.347 7.78155C113.975 7.39161 114.723 7.19665 115.589 7.19665C116.201 7.19665 116.762 7.29891 117.27 7.50534C117.762 7.69918 118.204 8.00172 118.563 8.39034C118.92 8.77453 119.174 9.22754 119.326 9.74745L117.896 10.1775C117.731 9.69797 117.414 9.28492 116.994 9.00008C116.583 8.71337 116.109 8.57001 115.573 8.57001C114.701 8.57001 114.043 8.86437 113.599 9.455C113.16 10.0447 112.935 10.836 112.925 11.8271C112.935 12.8344 113.166 13.6305 113.615 14.2154C114.07 14.7946 114.723 15.0851 115.573 15.0851C116.694 15.0851 117.458 14.5729 117.864 13.5493L119.326 13.9316C119.018 14.7487 118.541 15.3747 117.896 15.8076C117.251 16.2406 116.477 16.4575 115.573 16.4575ZM121.81 12.2333C121.869 13.1479 122.127 13.8522 122.582 14.3454C123.042 14.8376 123.676 15.0842 124.483 15.0842C125.057 15.0842 125.557 14.9513 125.986 14.6866C126.428 14.411 126.781 14.0129 127.002 13.5407L128.39 14.0204C128.073 14.7609 127.538 15.3871 126.855 15.8153C126.173 16.2434 125.404 16.4575 124.548 16.4575C123.692 16.4575 122.94 16.2673 122.29 15.8889C121.644 15.5089 121.122 14.9503 120.787 14.2804C120.435 13.5866 120.259 12.7876 120.259 11.8835C120.259 10.9354 120.432 10.1097 120.779 9.40626C121.131 8.69616 121.624 8.15236 122.257 7.77294C122.896 7.38875 123.638 7.19665 124.483 7.19665C125.322 7.19665 126.045 7.38588 126.652 7.7653C127.263 8.13803 127.733 8.67705 128.058 9.38141C128.383 10.08 128.545 10.9106 128.545 11.8758C128.545 12.0326 128.542 12.152 128.536 12.2333H121.81ZM124.532 8.49642C123.746 8.49642 123.126 8.71623 122.671 9.15395C122.216 9.59358 121.937 10.232 121.835 11.0711H127.034C126.855 9.35465 126.021 8.49642 124.532 8.49642ZM50.6113 24.5859H52.1223L54.7219 33.8381L57.3138 24.5935L58.8333 24.5859L61.4329 33.8381L64.0229 24.5859H65.5425L62.1554 36.2838H60.7084L58.0764 27.1118L55.4444 36.2838H53.9993L50.6113 24.5859ZM72.9397 28.9802C73.0544 29.2287 73.1299 29.5059 73.1671 29.8088C73.2054 30.107 73.2245 30.4559 73.2245 30.8573V36.2838H71.941V34.9191C71.2423 35.9914 70.1586 36.5275 68.6915 36.5275C68.0579 36.5275 67.516 36.4109 67.0668 36.1777C66.6176 35.9388 66.2783 35.6234 66.0509 35.2278C65.8221 34.8273 65.7043 34.3729 65.7097 33.9117C65.7097 32.6167 66.4274 31.7585 67.8629 31.3361C68.2854 31.2223 68.7699 31.122 69.3166 31.036C69.8642 30.949 70.5189 30.8544 71.2825 30.7512L71.8024 30.6785C71.7814 29.9685 71.6017 29.4485 71.2672 29.1188C70.9308 28.7824 70.3889 28.6152 69.6425 28.6152C69.0891 28.6152 68.6151 28.7423 68.2204 28.9974C67.8304 29.2459 67.559 29.6301 67.408 30.15L66.0346 29.7362C66.2459 28.9506 66.6578 28.3437 67.2694 27.9165C67.8868 27.4826 68.6839 27.2666 69.6587 27.2666C70.4653 27.2666 71.1496 27.4129 71.7135 27.7053C72.2822 27.992 72.6912 28.4173 72.9397 28.9802ZM68.9104 35.3166C69.4141 35.3166 69.8585 35.2277 70.2427 35.049C70.6278 34.8646 70.9384 34.6209 71.1773 34.3179C71.4163 34.0092 71.5692 33.668 71.6399 33.2943C71.6969 33.0929 71.7321 32.8859 71.745 32.6769C71.767 32.4495 71.7814 32.1943 71.7861 31.9124L71.3886 31.9621C70.7999 32.0397 70.2121 32.1235 69.6253 32.2134C69.2498 32.2717 68.8783 32.3531 68.5128 32.4571C68.0961 32.5871 67.7626 32.7658 67.5131 32.9933C67.2694 33.2207 67.1481 33.5237 67.1481 33.9031C67.1481 34.1573 67.2102 34.3934 67.3344 34.6104C67.4587 34.8206 67.6546 34.9926 67.9193 35.1217C68.185 35.2516 68.5157 35.3166 68.9104 35.3166ZM75.4991 24.3422H76.9451V36.2838H75.4991V24.3422ZM79.5456 24.3422H80.9906V36.2838H79.5456V24.3422ZM84.4924 32.3033C84.5526 33.2179 84.8097 33.9222 85.2646 34.4154C85.7243 34.9076 86.3579 35.1542 87.1655 35.1542C87.7389 35.1542 88.2397 35.0213 88.6679 34.7566C89.1104 34.4811 89.4633 34.083 89.6838 33.6107L91.0724 34.0904C90.7555 34.831 90.22 35.4572 89.5376 35.8853C88.8552 36.3134 88.0858 36.5275 87.2305 36.5275C86.3742 36.5275 85.622 36.3373 84.9721 35.9589C84.3265 35.5788 83.8044 35.0202 83.4688 34.3504C83.1171 33.6566 82.9412 32.8576 82.9412 31.9535C82.9412 31.0054 83.1142 30.1797 83.4611 29.4763C83.8128 28.7662 84.306 28.2224 84.9396 27.8429C85.578 27.4587 86.3206 27.2666 87.1655 27.2666C88.0046 27.2666 88.7281 27.4559 89.335 27.8353C89.9466 28.208 90.4149 28.747 90.7399 29.4514C91.0648 30.15 91.2273 30.9806 91.2273 31.9458C91.2273 32.1026 91.2244 32.222 91.2187 32.3033H84.4924ZM87.2142 28.5664C86.4286 28.5664 85.8093 28.7862 85.3535 29.224C84.8985 29.6636 84.6195 30.302 84.5172 31.1411H89.7163C89.5376 29.4247 88.7032 28.5664 87.2142 28.5664ZM95.2776 33.3756C95.2776 33.6518 95.2881 33.8725 95.3101 34.0417C95.3321 34.209 95.3808 34.3552 95.4563 34.4804C95.5863 34.7126 95.7707 34.8808 96.0087 34.984C96.2524 35.0863 96.5506 35.1379 96.9023 35.1379C97.1565 35.1379 97.4977 35.1054 97.9259 35.0404V36.2829C97.4984 36.3731 97.0629 36.4195 96.6261 36.4214C96.0469 36.4214 95.5375 36.3259 95.0989 36.1376C94.6805 35.9564 94.3387 35.6345 94.1326 35.2278C94.0112 34.9936 93.9289 34.7411 93.8889 34.4804C93.847 34.1652 93.8278 33.8474 93.8316 33.5294V28.704H92.053V27.5094H93.8316V25.0723H95.2776V27.5094H97.9259V28.704H95.2785L95.2776 33.3756Z" fill="white"/>
</g>
</g>
</g>
<defs>
<clipPath id="clip0_17_321">
<rect width="130" height="40.14" fill="white"/>
</clipPath>
<clipPath id="clip1_17_321">
<rect width="130" height="40.14" fill="white"/>
</clipPath>
<clipPath id="clip2_17_321">
<rect width="129.977" height="40.14" fill="white" transform="translate(0.0112305)"/>
</clipPath>
</defs>
</svg>
