<svg width="1024" height="1024" viewBox="0 0 1024 1024" fill="none" xmlns="http://www.w3.org/2000/svg">
<path d="M1024 0H0V1024H1024V0Z" fill="url(#paint0_linear_6_255)"/>
<path d="M636.991 371.802C636.991 375.114 634.307 377.8 630.995 377.802L442.992 377.912C407.094 377.933 378.01 407.052 378.03 442.95L378.11 580.95C378.132 616.848 407.25 645.933 443.149 645.912L630.988 645.802C634.303 645.8 636.991 648.487 636.991 651.802V667.781C636.991 671.093 634.307 673.779 630.995 673.781L431.183 673.897C386.448 673.923 350.162 637.679 350.136 592.944L350.042 430.944C350.016 386.209 386.26 349.923 430.995 349.897L630.988 349.782C634.303 349.78 636.991 352.467 636.991 355.782V371.802Z" fill="#66AFFE"/>
<path d="M634.144 267C695.682 266.964 746.775 311.763 756.533 370.54C757.119 374.068 754.326 377.182 750.75 377.182H722.1C719.176 377.182 716.7 375.064 716.03 372.218C707.506 336.004 674.976 309.057 636.163 309.079L391.15 309.221C345.863 309.247 309.172 345.981 309.198 391.269L309.341 635.151C309.367 680.439 346.101 717.13 391.388 717.104L636.4 716.962C676.412 716.939 709.712 688.262 716.91 650.349C717.475 647.372 720.006 645.105 723.036 645.105H751.141C754.686 645.105 757.47 648.168 756.937 651.673C747.877 711.198 696.491 756.823 634.429 756.859L391.213 757C322.73 757.04 267.181 701.555 267.141 633.072L267 391.213C266.96 322.73 322.444 267.18 390.928 267.141L634.144 267Z" fill="#A4CFFF"/>
<path d="M689 161C785.098 161 863 238.902 863 335V365C863 370.657 863 373.485 861.243 375.243C859.485 377 856.657 377 851 377H815C809.343 377 806.515 377 804.757 375.243C803 373.485 803 370.657 803 365V343C803 275.621 748.379 221 681 221H343C275.621 221 221 275.621 221 343V681C221 748.379 275.621 803 343 803H681C748.379 803 803 748.379 803 681V657C803 651.343 803 648.515 804.757 646.757C806.515 645 809.343 645 815 645H851C856.657 645 859.485 645 861.243 646.757C863 648.515 863 651.343 863 657V689C863 785.098 785.098 863 689 863H335C238.902 863 161 785.098 161 689V335C161 238.902 238.902 161 335 161H689Z" fill="#DEEEFF"/>
<defs>
<linearGradient id="paint0_linear_6_255" x1="512" y1="0" x2="512" y2="1024" gradientUnits="userSpaceOnUse">
<stop stop-color="#0079FE"/>
<stop offset="1" stop-color="#004898"/>
</linearGradient>
</defs>
</svg>
