<svg width="40" height="40" viewBox="0 0 40 40" fill="none" xmlns="http://www.w3.org/2000/svg">
<rect width="40" height="40" rx="20" fill="white" fill-opacity="0.1"/>
<path d="M12.4693 30C12.1564 29.8438 12 29.4532 12 29.0625C12 28.9844 12 28.8281 12 28.75C12 22.9688 12 17.1875 12 11.4843C12 11.1718 12.0782 10.9375 12.1564 10.625C12.2347 10.4687 12.3911 10.3125 12.5475 10.1562C15.9109 13.5156 19.196 16.875 22.4811 20.2344C19.1178 23.3594 15.8326 26.6406 12.4693 30Z" fill="white"/>
<path d="M25.7661 16.7969C24.8274 17.7344 23.8106 18.6719 22.872 19.6875C19.7433 16.4844 16.5364 13.2812 13.4077 10.0781C13.4077 10.0781 13.4077 10 13.4859 10C17.5532 12.2656 21.6205 14.5313 25.7661 16.7969Z" fill="white"/>
<path d="M13.4077 30C16.5364 26.875 19.7433 23.75 22.872 20.625C23.7324 21.4844 24.671 22.3438 25.6879 23.2812C21.6205 25.5469 17.5532 27.8125 13.4859 30H13.4077Z" fill="white"/>
<path d="M26.2349 22.9688C25.2181 22.0313 24.2795 21.0938 23.2627 20.1563C24.2795 19.1407 25.2964 18.1251 26.3131 17.1094C26.626 17.2656 26.9389 17.4219 27.2518 17.6562C28.0339 18.1251 28.8943 18.5157 29.6765 18.9844C29.9112 19.0625 30.0676 19.2188 30.224 19.4531C30.5369 19.8438 30.5369 20.2344 30.224 20.6251C30.0676 20.7813 29.9112 20.9376 29.6765 21.0157C28.5815 21.7188 27.4082 22.3438 26.2349 22.9688Z" fill="white"/>
</svg>
