<svg width="33" height="32" viewBox="0 0 33 32" fill="none" xmlns="http://www.w3.org/2000/svg">
<path d="M6.37963 29.3333C5.96247 29.125 5.75391 28.6042 5.75391 28.0834C5.75391 27.9792 5.75391 27.7708 5.75391 27.6667C5.75391 19.9584 5.75391 12.25 5.75391 4.6458C5.75391 4.22912 5.85819 3.91666 5.96247 3.49999C6.0668 3.29162 6.27536 3.08331 6.48397 2.875C10.9684 7.35415 15.3485 11.8333 19.7286 16.3125C15.2442 20.4791 10.8641 24.8542 6.37963 29.3333Z" fill="white"/>
<path d="M24.1086 11.7293C22.8571 12.9793 21.5013 14.2293 20.2499 15.5834C16.0783 11.3126 11.8024 7.04174 7.63086 2.7709C7.63086 2.7709 7.63086 2.66675 7.73513 2.66675C13.1582 5.68757 18.5812 8.70844 24.1086 11.7293Z" fill="white"/>
<path d="M7.63086 29.3333C11.8024 25.1666 16.0783 21 20.2499 16.8333C21.397 17.9791 22.6485 19.125 24.0043 20.375C18.5812 23.3958 13.1582 26.4167 7.73513 29.3333H7.63086Z" fill="white"/>
<path d="M24.7339 19.9585C23.3782 18.7085 22.1267 17.4585 20.771 16.2085C22.1267 14.8543 23.4825 13.5002 24.8382 12.146C25.2554 12.3543 25.6725 12.5627 26.0897 12.8751C27.1326 13.5002 28.2798 14.021 29.3227 14.646C29.6356 14.7501 29.8441 14.9585 30.0527 15.271C30.4699 15.7918 30.4699 16.3127 30.0527 16.8335C29.8441 17.0418 29.6356 17.2502 29.3227 17.3543C27.8626 18.2918 26.2983 19.1252 24.7339 19.9585Z" fill="white"/>
</svg>
