<svg width="41" height="40" viewBox="0 0 41 40" fill="none" xmlns="http://www.w3.org/2000/svg">
  <path d="M34.25 10H9.25C8.91848 10 8.60054 9.8683 8.36612 9.63388C8.1317 9.39946 8 9.08152 8 8.75C8 8.41848 8.1317 8.10054 8.36612 7.86612C8.60054 7.6317 8.91848 7.5 9.25 7.5H30.5C30.8315 7.5 31.1495 7.3683 31.3839 7.13388C31.6183 6.89946 31.75 6.58152 31.75 6.25C31.75 5.91848 31.6183 5.60054 31.3839 5.36612C31.1495 5.1317 30.8315 5 30.5 5H9.25C8.25544 5 7.30161 5.39509 6.59835 6.09835C5.89509 6.80161 5.5 7.75544 5.5 8.75V28.75C5.5 29.7446 5.89509 30.6984 6.59835 31.4017C7.30161 32.1049 8.25544 32.5 9.25 32.5H34.25C34.913 32.5 35.5489 32.2366 36.0178 31.7678C36.4866 31.2989 36.75 30.663 36.75 30V12.5C36.75 11.837 36.4866 11.2011 36.0178 10.7322C35.5489 10.2634 34.913 10 34.25 10ZM28.625 22.5C28.2542 22.5 27.8916 22.39 27.5833 22.184C27.275 21.978 27.0346 21.6851 26.8927 21.3425C26.7508 20.9999 26.7137 20.6229 26.786 20.2592C26.8584 19.8955 27.037 19.5614 27.2992 19.2992C27.5614 19.037 27.8955 18.8584 28.2592 18.786C28.6229 18.7137 28.9999 18.7508 29.3425 18.8927C29.6851 19.0346 29.978 19.275 30.184 19.5833C30.39 19.8916 30.5 20.2542 30.5 20.625C30.5 21.1223 30.3025 21.5992 29.9508 21.9508C29.5992 22.3025 29.1223 22.5 28.625 22.5Z" fill="#8126C8"/>
</svg>
